<?xml version="1.0" standalone="no"?>
<!DOCTYPE svg PUBLIC "-//W3C//DTD SVG 20010904//EN"
 "http://www.w3.org/TR/2001/REC-SVG-20010904/DTD/svg10.dtd">
<svg version="1.0" xmlns="http://www.w3.org/2000/svg"
 width="204.000000pt" height="204.000000pt" viewBox="0 0 204.000000 204.000000"
 preserveAspectRatio="xMidYMid meet">
<metadata>
Created by potrace 1.11, written by Peter Selinger 2001-2013
</metadata>
<g transform="translate(0.000000,204.000000) scale(0.100000,-0.100000)"
fill="#000000" stroke="none">
<path d="M862 2024 c-224 -39 -402 -132 -562 -294 -148 -149 -247 -343 -280
-546 -12 -72 -16 -258 -6 -291 3 -10 8 -38 11 -63 10 -68 62 -217 102 -290
146 -265 369 -436 666 -512 88 -22 284 -30 382 -15 251 37 502 189 662 402 83
111 165 306 189 450 4 22 7 87 8 145 2 159 -26 292 -94 436 -136 293 -399 503
-713 570 -94 20 -273 24 -365 8z m344 -53 c210 -43 379 -137 522 -290 279
-298 341 -751 150 -1111 -116 -220 -294 -375 -530 -463 -115 -43 -187 -56
-323 -57 -628 -5 -1095 593 -941 1205 28 111 95 255 156 336 228 305 605 453
966 380z"/>
<path d="M1289 1664 l-56 -56 -54 16 c-130 37 -255 37 -366 0 -188 -63 -337
-217 -399 -411 -31 -100 -24 -289 15 -379 8 -18 2 -29 -34 -66 l-44 -45 43
-42 c23 -22 45 -41 49 -41 5 0 19 12 32 28 21 23 26 25 35 12 7 -11 3 -21 -20
-41 l-29 -26 46 -46 46 -46 26 29 c19 22 30 27 41 20 12 -8 9 -15 -19 -44 -19
-20 -33 -37 -30 -38 2 -2 23 -21 47 -43 l42 -39 43 42 42 41 64 -20 c36 -11
81 -22 100 -25 72 -10 683 -6 690 4 3 6 6 59 6 119 l-1 108 -62 3 -63 3 21 29
c31 44 76 148 88 205 17 79 8 249 -17 319 l-21 60 22 25 c13 14 35 38 51 53
15 16 27 32 27 36 0 4 -18 26 -39 49 l-40 42 -42 -44 c-33 -34 -46 -42 -56
-33 -10 8 -4 20 32 56 l46 46 -46 45 -45 46 -44 -46 c-31 -33 -48 -44 -57 -38
-11 6 -3 20 34 57 l47 48 -41 42 c-23 23 -45 42 -48 42 -3 0 -31 -25 -62 -56z
m-263 -256 c2 -2 -87 -94 -197 -203 l-201 -200 5 66 c11 161 128 297 284 332
53 12 99 14 109 5z m174 -53 c0 -2 -115 -118 -255 -260 -196 -197 -256 -253
-261 -240 -5 13 56 80 241 265 150 151 253 246 262 243 7 -3 13 -6 13 -8z
m103 -108 c3 -9 -94 -113 -247 -266 -191 -191 -254 -249 -263 -240 -9 9 49 73
240 265 139 139 255 253 258 254 4 0 9 -6 12 -13z m54 -256 c-25 -165 -158
-292 -326 -310 -39 -4 -75 -5 -81 -1 -5 3 84 100 198 215 202 204 207 209 212
180 3 -17 2 -54 -3 -84z"/>
</g>
</svg>
